<svg width="4" height="14" viewBox="0 0 4 14" fill="none" xmlns="http://www.w3.org/2000/svg">
<path d="M2.1875 5.45249C1.76823 5.45249 1.40885 5.60223 1.10938 5.90171C0.809896 6.20119 0.660156 6.56056 0.660156 6.97983C0.660156 7.39911 0.809896 7.75848 1.10938 8.05796C1.40885 8.35744 1.76823 8.50718 2.1875 8.50718C2.60677 8.50718 2.96615 8.35744 3.26562 8.05796C3.5651 7.75848 3.71484 7.39911 3.71484 6.97983C3.71484 6.56056 3.5651 6.20119 3.26562 5.90171C2.96615 5.60223 2.60677 5.45249 2.1875 5.45249ZM2.1875 0.85249C1.76823 0.85249 1.40885 1.00223 1.10938 1.30171C0.809896 1.60119 0.660156 1.96056 0.660156 2.37983C0.660156 2.7991 0.809896 3.15848 1.10938 3.45796C1.40885 3.75744 1.76823 3.90718 2.1875 3.90718C2.60677 3.90718 2.96615 3.75744 3.26562 3.45796C3.5651 3.15848 3.71484 2.7991 3.71484 2.37983C3.71484 1.96056 3.5651 1.60119 3.26562 1.30171C2.96615 1.00223 2.60677 0.85249 2.1875 0.85249ZM2.1875 10.0525C1.76823 10.0525 1.40885 10.2022 1.10938 10.5017C0.809896 10.8012 0.660156 11.1606 0.660156 11.5798C0.660156 11.9991 0.809896 12.3585 1.10938 12.658C1.40885 12.9574 1.76823 13.1072 2.1875 13.1072C2.60677 13.1072 2.96615 12.9574 3.26562 12.658C3.5651 12.3585 3.71484 11.9991 3.71484 11.5798C3.71484 11.1606 3.5651 10.8012 3.26562 10.5017C2.96615 10.2022 2.60677 10.0525 2.1875 10.0525Z" fill="#A3A4CC"/>
</svg>
